<svg width="220" height="280" viewBox="0 0 220 280" fill="none" xmlns="http://www.w3.org/2000/svg">
  <defs>
    <linearGradient id="bg" x1="20" y1="10" x2="200" y2="260" gradientUnits="userSpaceOnUse">
      <stop stop-color="#7C3AED" stop-opacity="0.9"/>
      <stop offset="1" stop-color="#EC4899" stop-opacity="0.8"/>
    </linearGradient>
  </defs>
  <rect width="220" height="280" rx="22" fill="url(#bg)"/>
  <circle cx="110" cy="120" r="70" fill="#FDF2F8"/>
  <path d="M110 72c-22 0-40 18-40 40 0 30 40 54 40 54s40-24 40-54c0-22-18-40-40-40Z" fill="#FBBF24"/>
  <path d="M80 146c8 14 18 22 30 22s22-8 30-22" stroke="#EA580C" stroke-width="4" stroke-linecap="round"/>
  <rect x="60" y="184" width="100" height="58" rx="18" fill="#FDF2F8" fill-opacity="0.85"/>
  <rect x="70" y="196" width="80" height="12" rx="6" fill="#F472B6"/>
  <rect x="70" y="216" width="46" height="10" rx="5" fill="#C084FC"/>
  <rect x="70" y="234" width="30" height="10" rx="5" fill="#A78BFA"/>
</svg>
