<svg width="64" height="64" viewBox="0 0 64 64" fill="none" xmlns="http://www.w3.org/2000/svg">
  <rect width="64" height="64" rx="14" fill="#E60023"/>
  <path d="M33 16c-8.6 0-14.1 6-14.1 13 0 5.3 3.2 9.3 8.5 9.3 1.7 0 3.9-1.1 4.5-2.5l-1.3 5.2-.6 2.4-.4 1.8 3.4 1 1.3-5c.6-2.5 1.5-5 1.9-7.4.2-1 .3-2 .3-3 0-3.5-1.9-6.5-6-6.5-2.3 0-4.1 1.6-4.1 3.8 0 1.5.8 2.6.8 2.6s-2.8-11.5 5.7-11.5c4.1 0 6.4 2.9 6.4 6.7 0 4.4-2.1 7.6-2.1 7.6H41v3.3c.9-.4 4-4.3 4-9.9C45 22.2 40.7 16 33 16Z" fill="white"/>
</svg>
