<svg width="420" height="520" viewBox="0 0 420 520" fill="none" xmlns="http://www.w3.org/2000/svg">
  <defs>
    <linearGradient id="bg" x1="40" y1="30" x2="360" y2="480" gradientUnits="userSpaceOnUse">
      <stop stop-color="#FDB4E1" stop-opacity="0.45"/>
      <stop offset="1" stop-color="#DB2777" stop-opacity="0.9"/>
    </linearGradient>
  </defs>
  <rect width="420" height="520" rx="28" fill="#0F0A1F"/>
  <rect x="22" y="22" width="376" height="476" rx="26" fill="url(#bg)"/>
  <rect x="48" y="70" width="324" height="260" rx="28" fill="#0F0A1F" stroke="#F9A8D4" stroke-width="3"/>
  <circle cx="210" cy="160" r="70" fill="#F472B6"/>
  <path d="M210 126c-18 0-33 14-33 32 0 24 33 44 33 44s33-20 33-44c0-18-15-32-33-32Z" fill="#FDF2F8"/>
  <rect x="86" y="250" width="248" height="36" rx="14" fill="#FDF2F8" fill-opacity="0.9"/>
  <rect x="86" y="295" width="172" height="20" rx="10" fill="#FCE7F3"/>
  <rect x="48" y="360" width="324" height="110" rx="22" fill="#0F0A1F" stroke="#F9A8D4" stroke-opacity="0.6" stroke-width="3"/>
  <rect x="78" y="382" width="186" height="18" rx="9" fill="#FDF2F8"/>
  <rect x="78" y="410" width="210" height="12" rx="6" fill="#FBCFE8"/>
  <rect x="78" y="432" width="138" height="12" rx="6" fill="#FBCFE8"/>
  <rect x="264" y="400" width="92" height="46" rx="16" fill="#EC4899"/>
  <text x="310" y="428" text-anchor="middle" fill="white" font-family="'Inter', sans-serif" font-size="18" font-weight="700">Match</text>
</svg>
