<svg width="420" height="520" viewBox="0 0 420 520" fill="none" xmlns="http://www.w3.org/2000/svg">
  <defs>
    <linearGradient id="bg" x1="60" y1="40" x2="360" y2="500" gradientUnits="userSpaceOnUse">
      <stop stop-color="#F97316" stop-opacity="0.45"/>
      <stop offset="0.5" stop-color="#DB2777" stop-opacity="0.65"/>
      <stop offset="1" stop-color="#7C3AED" stop-opacity="0.95"/>
    </linearGradient>
  </defs>
  <rect width="420" height="520" rx="28" fill="#0F0A1F"/>
  <rect x="22" y="22" width="376" height="476" rx="26" fill="url(#bg)"/>
  <rect x="64" y="80" width="292" height="200" rx="30" fill="#0F0A1F" stroke="#FBBF24" stroke-opacity="0.65" stroke-width="3"/>
  <circle cx="210" cy="170" r="70" fill="#FBBF24" fill-opacity="0.5" stroke="#F472B6" stroke-width="3"/>
  <circle cx="210" cy="170" r="36" fill="#FEF3C7"/>
  <rect x="104" y="304" width="212" height="26" rx="13" fill="#FEF3C7" fill-opacity="0.9"/>
  <rect x="104" y="340" width="168" height="16" rx="8" fill="#FDE68A"/>
  <rect x="104" y="364" width="132" height="14" rx="7" fill="#FDE68A"/>
  <rect x="64" y="390" width="292" height="80" rx="22" fill="#0F0A1F" stroke="#C084FC" stroke-opacity="0.6" stroke-width="3"/>
  <rect x="90" y="410" width="120" height="18" rx="9" fill="#F472B6"/>
  <rect x="220" y="410" width="90" height="18" rx="9" fill="#FBBF24"/>
  <rect x="90" y="438" width="188" height="14" rx="7" fill="#FBCFE8"/>
  <circle cx="340" cy="72" r="26" fill="#FBBF24" stroke="#F472B6" stroke-width="4"/>
  <rect x="326" y="58" width="28" height="28" rx="8" stroke="#0F0A1F" stroke-width="5"/>
</svg>
