<svg width="420" height="520" viewBox="0 0 420 520" fill="none" xmlns="http://www.w3.org/2000/svg">
  <defs>
    <linearGradient id="bg" x1="40" y1="20" x2="360" y2="480" gradientUnits="userSpaceOnUse">
      <stop stop-color="#0EA5E9" stop-opacity="0.35"/>
      <stop offset="1" stop-color="#0A66C2" stop-opacity="0.9"/>
    </linearGradient>
  </defs>
  <rect width="420" height="520" rx="28" fill="#0B172A"/>
  <rect x="22" y="22" width="376" height="476" rx="26" fill="url(#bg)"/>
  <rect x="48" y="70" width="324" height="250" rx="22" fill="#0F172A" stroke="#7DD3FC" stroke-width="3"/>
  <circle cx="110" cy="130" r="40" fill="#0EA5E9"/>
  <rect x="170" y="120" width="160" height="20" rx="10" fill="#E0F2FE"/>
  <rect x="170" y="150" width="190" height="14" rx="7" fill="#BAE6FD"/>
  <rect x="170" y="176" width="120" height="14" rx="7" fill="#BAE6FD"/>
  <rect x="65" y="210" width="290" height="80" rx="18" fill="#0EA5E9" fill-opacity="0.15" stroke="#38BDF8" stroke-width="2"/>
  <rect x="48" y="340" width="324" height="120" rx="22" fill="#0F172A" stroke="#E0F2FE" stroke-opacity="0.3" stroke-width="3"/>
  <rect x="78" y="360" width="180" height="24" rx="12" fill="#E0F2FE"/>
  <rect x="78" y="394" width="244" height="14" rx="7" fill="#BAE6FD"/>
  <rect x="78" y="416" width="200" height="14" rx="7" fill="#BAE6FD"/>
  <rect x="248" y="450" width="84" height="34" rx="12" fill="#0A66C2"/>
  <text x="290" y="473" text-anchor="middle" font-family="'Inter', sans-serif" font-size="14" fill="white" font-weight="700">Connect</text>
  <rect x="320" y="48" width="52" height="52" rx="14" fill="#0A66C2" stroke="#E0F2FE" stroke-opacity="0.7" stroke-width="3"/>
  <text x="346" y="82" text-anchor="middle" font-family="'Inter', sans-serif" font-size="30" font-weight="700" fill="white">in</text>
</svg>
