<svg width="640" height="640" viewBox="0 0 640 640" fill="none" xmlns="http://www.w3.org/2000/svg">
  <defs>
    <linearGradient id="bg" x1="120" y1="50" x2="520" y2="590" gradientUnits="userSpaceOnUse">
      <stop stop-color="#0B1224"/>
      <stop offset="1" stop-color="#1E293B"/>
    </linearGradient>
    <linearGradient id="scan" x1="0" y1="0" x2="1" y2="0">
      <stop stop-color="#F472B6"/>
      <stop offset="1" stop-color="#8B5CF6"/>
    </linearGradient>
  </defs>
  <rect width="640" height="640" rx="48" fill="url(#bg)"/>
  <rect x="160" y="110" width="320" height="420" rx="28" fill="#0F172A" stroke="#7C3AED" stroke-width="4" stroke-opacity="0.35"/>
  <rect x="190" y="150" width="260" height="260" rx="24" fill="#111827" stroke="#22D3EE" stroke-opacity="0.25" stroke-width="3"/>
  <circle cx="320" cy="280" r="96" fill="#0EA5E9" fill-opacity="0.08" stroke="#38BDF8" stroke-width="3"/>
  <circle cx="320" cy="280" r="62" fill="#A855F7" fill-opacity="0.18" stroke="#C084FC" stroke-width="2"/>
  <circle cx="320" cy="280" r="26" fill="#22C55E"/>
  <path d="M320 250v30" stroke="white" stroke-width="6" stroke-linecap="round"/>
  <path d="M320 280l18 12" stroke="white" stroke-width="6" stroke-linecap="round"/>
  <rect x="190" y="190" width="260" height="12" rx="6" fill="#0EA5E9" fill-opacity="0.12"/>
  <rect x="190" y="365" width="260" height="12" rx="6" fill="#0EA5E9" fill-opacity="0.12"/>
  <rect x="190" y="150" width="260" height="10" fill="url(#scan)">
    <animate attributeName="y" from="150" to="400" dur="2s" repeatCount="indefinite" />
  </rect>
  <rect x="210" y="420" width="220" height="80" rx="18" fill="#111827" stroke="#22D3EE" stroke-opacity="0.35" stroke-width="2"/>
  <rect x="230" y="445" width="180" height="18" rx="9" fill="url(#scan)"/>
  <rect x="230" y="470" width="110" height="14" rx="7" fill="#22C55E" fill-opacity="0.65"/>
  <text x="320" y="538" text-anchor="middle" fill="#E5E7EB" font-family="'Inter', sans-serif" font-size="24" font-weight="700">AI processing in progress</text>
  <text x="320" y="566" text-anchor="middle" fill="#CBD5E1" font-family="'Inter', sans-serif" font-size="18">Sharpening details & lighting</text>
  <circle cx="200" cy="120" r="10" fill="#FDE68A"/>
  <circle cx="230" cy="120" r="10" fill="#A7F3D0"/>
  <circle cx="260" cy="120" r="10" fill="#93C5FD"/>
</svg>
