<svg width="640" height="640" viewBox="0 0 640 640" fill="none" xmlns="http://www.w3.org/2000/svg">
  <defs>
    <linearGradient id="bg" x1="120" y1="60" x2="520" y2="560" gradientUnits="userSpaceOnUse">
      <stop stop-color="#0B132B"/>
      <stop offset="1" stop-color="#111827"/>
    </linearGradient>
    <linearGradient id="card" x1="0" y1="0" x2="1" y2="1">
      <stop stop-color="#EC4899"/>
      <stop offset="1" stop-color="#8B5CF6"/>
    </linearGradient>
  </defs>
  <rect width="640" height="640" rx="48" fill="url(#bg)"/>
  <g filter="url(#shadow)">
    <rect x="150" y="120" width="180" height="240" rx="26" fill="#0F172A" stroke="#F87171" stroke-opacity="0.4" stroke-width="3"/>
    <rect x="310" y="160" width="180" height="260" rx="26" fill="#0F172A" stroke="#34D399" stroke-opacity="0.35" stroke-width="3"/>
    <rect x="200" y="220" width="240" height="240" rx="26" fill="#0F172A" stroke="#60A5FA" stroke-opacity="0.35" stroke-width="3"/>
  </g>
  <rect x="186" y="150" width="108" height="80" rx="18" fill="#F1F5F9"/>
  <circle cx="240" cy="190" r="26" fill="#2563EB"/>
  <rect x="346" y="190" width="108" height="80" rx="18" fill="#F1F5F9"/>
  <circle cx="400" cy="230" r="26" fill="#EC4899"/>
  <rect x="246" y="270" width="148" height="90" rx="20" fill="#F1F5F9"/>
  <rect x="260" y="286" width="120" height="58" rx="16" fill="#0EA5E9" fill-opacity="0.2" stroke="#38BDF8" stroke-width="2"/>
  <rect x="230" y="340" width="180" height="120" rx="22" fill="#111827" stroke="#A855F7" stroke-width="3" stroke-opacity="0.4"/>
  <rect x="250" y="364" width="140" height="70" rx="18" fill="url(#card)" fill-opacity="0.2"/>
  <rect x="270" y="448" width="100" height="12" rx="6" fill="#22C55E"/>
  <text x="320" y="520" text-anchor="middle" fill="#E5E7EB" font-family="'Inter', sans-serif" font-size="24" font-weight="700">Use across your platforms</text>
  <text x="320" y="548" text-anchor="middle" fill="#CBD5E1" font-family="'Inter', sans-serif" font-size="18">LinkedIn • Instagram • Dating apps • Pinterest</text>
  <defs>
    <filter id="shadow" x="120" y="100" width="400" height="400" color-interpolation-filters="sRGB">
      <feDropShadow dx="0" dy="12" stdDeviation="20" flood-color="#000000" flood-opacity="0.35"/>
    </filter>
  </defs>
</svg>
